<svg width="313" height="43" viewBox="0 0 313 43" fill="none" xmlns="http://www.w3.org/2000/svg">
<path d="M0.594283 29.0853C0.0894954 29.3094 -0.13807 29.9003 0.0860012 30.4051C0.310073 30.9098 0.900929 31.1374 1.40572 30.9133L0.594283 29.0853ZM313 40.5L305.585 31.6482L301.627 42.4956L313 40.5ZM7.08774 28.4538C7.59659 28.2391 7.83506 27.6525 7.62038 27.1437C7.4057 26.6348 6.81916 26.3964 6.31031 26.6111L7.08774 28.4538ZM17.8072 22.0107C17.2907 22.2062 17.0305 22.7835 17.226 23.3C17.4216 23.8165 17.9988 24.0767 18.5153 23.8811L17.8072 22.0107ZM30.1064 19.7414C30.63 19.5656 30.9118 18.9986 30.736 18.4751C30.5601 17.9515 29.9931 17.6697 29.4696 17.8455L30.1064 19.7414ZM41.283 14.1269C40.7531 14.2826 40.4498 14.8384 40.6055 15.3683C40.7612 15.8982 41.317 16.2015 41.8469 16.0458L41.283 14.1269ZM53.7208 12.8032C54.2562 12.668 54.5807 12.1243 54.4455 11.5888C54.3103 11.0533 53.7666 10.7288 53.2311 10.8641L53.7208 12.8032ZM65.2964 8.06352C64.7561 8.17801 64.4109 8.70882 64.5254 9.2491C64.6399 9.78939 65.1707 10.1346 65.711 10.0201L65.2964 8.06352ZM77.7995 7.70022C78.3438 7.60655 78.7091 7.08939 78.6154 6.54511C78.5217 6.00082 78.0046 5.63552 77.4603 5.72919L77.7995 7.70022ZM89.7039 3.86202C89.1565 3.93488 88.7717 4.43775 88.8446 4.98521C88.9174 5.53266 89.4203 5.9174 89.9678 5.84454L89.7039 3.86202ZM102.197 4.45111C102.747 4.3989 103.15 3.91086 103.098 3.36105C103.046 2.81124 102.558 2.40786 102.008 2.46007L102.197 4.45111ZM114.354 1.51855C113.803 1.55038 113.381 2.02316 113.413 2.57452C113.445 3.12589 113.918 3.54706 114.469 3.51523L114.354 1.51855ZM126.766 3.02952C127.318 3.01769 127.756 2.56048 127.744 2.00833C127.732 1.45617 127.275 1.01815 126.723 1.02998L126.766 3.02952ZM139.099 0.98439C138.546 0.976713 138.092 1.41816 138.085 1.97039C138.077 2.52262 138.518 2.97652 139.071 2.9842L139.099 0.98439ZM151.389 3.36829C151.94 3.39493 152.409 2.96934 152.436 2.4177C152.462 1.86605 152.037 1.39726 151.485 1.37062L151.389 3.36829ZM163.848 2.17496C163.297 2.13 162.815 2.53979 162.77 3.09024C162.725 3.64069 163.134 4.12337 163.685 4.16832L163.848 2.17496ZM175.945 5.3686C176.494 5.43114 176.989 5.03701 177.052 4.48827C177.114 3.93954 176.72 3.44401 176.172 3.38147L175.945 5.3686ZM188.444 4.97257C187.897 4.89323 187.39 5.27198 187.311 5.81854C187.231 6.36509 187.61 6.87248 188.157 6.95182L188.444 4.97257ZM200.307 8.8991C200.851 8.99441 201.369 8.63067 201.465 8.08667C201.56 7.54267 201.196 7.02441 200.652 6.92911L200.307 8.8991ZM212.828 9.23915C212.286 9.12872 211.758 9.47786 211.648 10.019C211.537 10.5601 211.886 11.0883 212.428 11.1988L212.828 9.23915ZM224.473 13.8243C225.011 13.9489 225.548 13.6138 225.673 13.0758C225.798 12.5377 225.462 12.0005 224.924 11.8759L224.473 13.8243ZM236.93 14.8151C236.395 14.6773 235.85 14.999 235.712 15.5339C235.574 16.0687 235.896 16.6139 236.431 16.7518L236.93 14.8151ZM248.341 19.9694C248.872 20.1194 249.425 19.8102 249.575 19.2787C249.725 18.7472 249.416 18.1947 248.884 18.0446L248.341 19.9694ZM260.756 21.5327C260.228 21.3715 259.669 21.6692 259.508 22.1974C259.347 22.7257 259.644 23.2846 260.173 23.4457L260.756 21.5327ZM271.924 27.1515C272.449 27.3224 273.013 27.0352 273.184 26.51C273.355 25.9848 273.068 25.4206 272.542 25.2497L271.924 27.1515ZM284.28 29.1746C283.758 28.9955 283.189 29.2738 283.01 29.7962C282.831 30.3186 283.109 30.8873 283.631 31.0665L284.28 29.1746ZM295.279 35.1438C295.8 35.3292 296.372 35.0578 296.557 34.5376C296.743 34.0174 296.471 33.4453 295.951 33.2599L295.279 35.1438ZM307.552 37.4475C307.033 37.2585 306.46 37.5259 306.271 38.0448C306.081 38.5638 306.349 39.1377 306.868 39.3267L307.552 37.4475ZM1.40572 30.9133C3.30201 30.0716 5.19607 29.2519 7.08774 28.4538L6.31031 26.6111C4.40726 27.4139 2.50187 28.2386 0.594283 29.0853L1.40572 30.9133ZM18.5153 23.8811C22.3907 22.414 26.2548 21.0352 30.1064 19.7414L29.4696 17.8455C25.5941 19.1473 21.7062 20.5345 17.8072 22.0107L18.5153 23.8811ZM41.8469 16.0458C45.82 14.8783 49.7784 13.7987 53.7208 12.8032L53.2311 10.8641C49.2641 11.8658 45.2809 12.9521 41.283 14.1269L41.8469 16.0458ZM65.711 10.0201C69.7597 9.16212 73.7897 8.39025 77.7995 7.70022L77.4603 5.72919C73.4256 6.42352 69.3704 7.2002 65.2964 8.06352L65.711 10.0201ZM89.9678 5.84454C94.068 5.29882 98.145 4.83591 102.197 4.45111L102.008 2.46007C97.9314 2.8472 93.8294 3.31294 89.7039 3.86202L89.9678 5.84454ZM114.469 3.51523C118.597 3.27693 122.697 3.11674 126.766 3.02952L126.723 1.02998C122.63 1.11771 118.506 1.27883 114.354 1.51855L114.469 3.51523ZM139.071 2.9842C143.212 3.04176 147.318 3.17169 151.389 3.36829L151.485 1.37062C147.392 1.17294 143.263 1.04228 139.099 0.98439L139.071 2.9842ZM163.685 4.16832C167.813 4.50547 171.901 4.90766 175.945 5.3686L176.172 3.38147C172.107 2.91818 167.998 2.51389 163.848 2.17496L163.685 4.16832ZM188.157 6.95182C192.256 7.54696 196.307 8.19838 200.307 8.8991L200.652 6.92911C196.634 6.22513 192.564 5.5706 188.444 4.97257L188.157 6.95182ZM212.428 11.1988C216.503 12.0304 220.519 12.9083 224.473 13.8243L224.924 11.8759C220.954 10.9561 216.921 10.0745 212.828 9.23915L212.428 11.1988ZM236.431 16.7518C240.474 17.7941 244.445 18.8698 248.341 19.9694L248.884 18.0446C244.975 16.9411 240.989 15.8614 236.93 14.8151L236.431 16.7518ZM260.173 23.4457C264.183 24.6686 268.101 25.9078 271.924 27.1515L272.542 25.2497C268.709 24.0025 264.779 22.7595 260.756 21.5327L260.173 23.4457ZM283.631 31.0665C287.639 32.4405 291.523 33.8049 295.279 35.1438L295.951 33.2599C292.189 31.9189 288.297 30.5517 284.28 29.1746L283.631 31.0665Z" fill="#557AC9"/>
</svg>
