<svg width="290" height="36" viewBox="0 0 290 36" fill="none" xmlns="http://www.w3.org/2000/svg">
<path d="M290 2L278.527 0.697441L283.135 11.2849L290 2ZM6.41261 8.69451C6.92788 8.89329 7.50673 8.63673 7.70551 8.12146C7.9043 7.60619 7.64774 7.02733 7.13246 6.82855L6.41261 8.69451ZM18.7243 11.1477C18.2045 10.9612 17.6319 11.2314 17.4454 11.7513C17.2589 12.2711 17.5291 12.8437 18.0489 13.0302L18.7243 11.1477ZM29.7895 17.0678C30.3142 17.2402 30.8793 16.9547 31.0517 16.43C31.2241 15.9053 30.9385 15.3402 30.4139 15.1678L29.7895 17.0678ZM42.2188 18.8576C41.6892 18.7007 41.1328 19.0028 40.9759 19.5323C40.819 20.0619 41.1211 20.6183 41.6506 20.7752L42.2188 18.8576ZM53.6409 24.1253C54.1751 24.2655 54.7218 23.9461 54.8619 23.4119C55.0021 22.8777 54.6826 22.331 54.1484 22.1908L53.6409 24.1253ZM66.1477 25.1305C65.6092 25.008 65.0733 25.3453 64.9508 25.8838C64.8283 26.4223 65.1655 26.9582 65.704 27.0807L66.1477 25.1305ZM77.8819 29.6341C78.4243 29.7381 78.9483 29.3828 79.0523 28.8404C79.1564 28.298 78.801 27.7739 78.2586 27.6699L77.8819 29.6341ZM90.4348 29.7848C89.8891 29.6999 89.3779 30.0735 89.293 30.6192C89.2081 31.1649 89.5817 31.6761 90.1274 31.761L90.4348 29.7848ZM102.462 33.4534C103.011 33.5185 103.508 33.1268 103.573 32.5783C103.639 32.0299 103.247 31.5325 102.698 31.4673L102.462 33.4534ZM114.985 32.7006C114.435 32.6556 113.952 33.0652 113.907 33.6157C113.862 34.1661 114.271 34.6489 114.822 34.694L114.985 32.7006ZM127.244 35.4806C127.796 35.5053 128.263 35.0781 128.288 34.5263C128.312 33.9746 127.885 33.5073 127.333 33.4826L127.244 35.4806ZM139.695 33.8054C139.143 33.8013 138.692 34.2456 138.688 34.7979C138.684 35.3502 139.128 35.8012 139.68 35.8053L139.695 33.8054ZM152.105 35.667C152.657 35.6506 153.091 35.1897 153.074 34.6377C153.058 34.0856 152.597 33.6514 152.045 33.6679L152.105 35.667ZM164.396 33.0705C163.845 33.1074 163.428 33.584 163.465 34.1351C163.502 34.6861 163.978 35.1029 164.529 35.066L164.396 33.0705ZM176.934 34.0046C177.483 33.9474 177.882 33.4557 177.825 32.9064C177.768 32.3571 177.276 31.9582 176.727 32.0154L176.934 34.0046ZM189.004 30.5097C188.457 30.5869 188.076 31.0928 188.153 31.6397C188.23 32.1865 188.736 32.5673 189.283 32.4901L189.004 30.5097ZM201.551 30.5334C202.095 30.4367 202.457 29.9175 202.36 29.3738C202.264 28.83 201.745 28.4676 201.201 28.5643L201.551 30.5334ZM213.328 26.1861C212.788 26.3018 212.444 26.8335 212.559 27.3735C212.675 27.9135 213.207 28.2574 213.747 28.1417L213.328 26.1861ZM225.855 25.3267C226.391 25.1924 226.716 24.6493 226.582 24.1136C226.448 23.5779 225.905 23.2524 225.369 23.3867L225.855 25.3267ZM237.311 20.1794C236.78 20.3315 236.473 20.8852 236.625 21.4162C236.778 21.9471 237.331 22.2542 237.862 22.102L237.311 20.1794ZM249.756 18.4824C250.282 18.3131 250.571 17.7497 250.401 17.224C250.232 16.6983 249.669 16.4094 249.143 16.5787L249.756 18.4824ZM260.854 12.6001C260.333 12.786 260.062 13.3582 260.248 13.8783C260.434 14.3984 261.007 14.6693 261.527 14.4835L260.854 12.6001ZM273.166 10.1212C273.68 9.91957 273.933 9.33929 273.732 8.82514C273.53 8.31099 272.95 8.05766 272.435 8.25932L273.166 10.1212ZM283.882 3.57235C283.374 3.78909 283.138 4.3766 283.355 4.88457C283.572 5.39255 284.159 5.62864 284.667 5.41189L283.882 3.57235ZM0.630587 6.42927C2.51721 7.17926 4.44469 7.93531 6.41261 8.69451L7.13246 6.82855C5.17141 6.072 3.25026 5.31843 1.36941 4.57073L0.630587 6.42927ZM18.0489 13.0302C21.8367 14.3893 25.751 15.7407 29.7895 17.0678L30.4139 15.1678C26.3938 13.8467 22.4966 12.5012 18.7243 11.1477L18.0489 13.0302ZM41.6506 20.7752C45.5466 21.9295 49.544 23.0504 53.6409 24.1253L54.1484 22.1908C50.0728 21.1214 46.0956 20.0062 42.2188 18.8576L41.6506 20.7752ZM65.704 27.0807C69.6796 27.9851 73.7394 28.8396 77.8819 29.6341L78.2586 27.6699C74.1392 26.8799 70.1018 26.0301 66.1477 25.1305L65.704 27.0807ZM90.1274 31.761C94.1677 32.3894 98.2797 32.9563 102.462 33.4534L102.698 31.4673C98.5402 30.9732 94.4519 30.4096 90.4348 29.7848L90.1274 31.761ZM114.822 34.694C118.901 35.0281 123.042 35.2927 127.244 35.4806L127.333 33.4826C123.156 33.2958 119.04 33.0328 114.985 32.7006L114.822 34.694ZM139.68 35.8053C143.768 35.8359 147.91 35.7918 152.105 35.667L152.045 33.6679C147.876 33.7919 143.759 33.8358 139.695 33.8054L139.68 35.8053ZM164.529 35.066C168.617 34.7922 172.752 34.4401 176.934 34.0046L176.727 32.0154C172.57 32.4483 168.459 32.7983 164.396 33.0705L164.529 35.066ZM189.283 32.4901C193.332 31.9187 197.421 31.2679 201.551 30.5334L201.201 28.5643C197.095 29.2947 193.029 29.9417 189.004 30.5097L189.283 32.4901ZM213.747 28.1417C217.747 27.2841 221.784 26.347 225.855 25.3267L225.369 23.3867C221.32 24.4015 217.306 25.3333 213.328 26.1861L213.747 28.1417ZM237.862 22.102C241.796 20.975 245.76 19.7695 249.756 18.4824L249.143 16.5787C245.168 17.8592 241.224 19.0584 237.311 20.1794L237.862 22.102ZM261.527 14.4835C265.379 13.1068 269.259 11.6536 273.166 10.1212L272.435 8.25932C268.547 9.7843 264.687 11.2303 260.854 12.6001L261.527 14.4835Z" fill="#557AC9"/>
</svg>
