<svg width="75" height="36" viewBox="0 0 75 36" fill="none" xmlns="http://www.w3.org/2000/svg">
<path fill-rule="evenodd" clip-rule="evenodd" d="M21.1794 21.7963C21.2449 22.0582 21.3758 22.3854 21.5067 22.6473C21.7685 23.4982 21.8994 24.2836 21.7031 25.0691C21.4413 26.7709 20.3285 28.2109 18.6922 28.8654C18.1685 29.1273 17.514 29.2582 16.8594 29.2582C16.7613 29.2582 16.6631 29.2418 16.5649 29.2254C16.4667 29.2091 16.3685 29.1927 16.2704 29.1927C15.5504 29.0618 14.7649 28.8654 13.9794 28.4073C13.0631 27.8836 12.0813 27.1636 11.0994 26.0509C10.0522 27.0982 9.13581 27.8836 8.21944 28.4073C7.49944 28.8654 6.71399 29.1273 5.92853 29.1927C5.73217 29.2582 5.5358 29.2582 5.33944 29.2582C4.6849 29.2582 4.03035 29.1273 3.57217 28.9963C1.9358 28.3418 0.823077 26.9018 0.561259 25.2C0.43035 24.3491 0.495805 23.5636 0.823077 22.7127C0.888532 22.3854 1.01944 22.1236 1.15035 21.8618C1.2278 21.6811 1.30526 21.5207 1.37869 21.3687L1.3787 21.3687C1.49144 21.1352 1.59471 20.9214 1.67399 20.6836V20.6182C3.2449 17.2145 4.94671 13.7454 6.77944 10.2763L6.8449 10.1454C6.93041 9.93164 7.04387 9.71784 7.167 9.4858L7.16702 9.48576L7.16703 9.48575L7.16703 9.48574L7.16705 9.48571C7.23239 9.36257 7.30046 9.2343 7.36853 9.09816C7.44187 8.98815 7.51521 8.87301 7.58999 8.75561C7.78216 8.45389 7.98384 8.13725 8.21944 7.85453C9.0049 7.00362 9.98671 6.47998 11.1649 6.47998C12.3431 6.47998 13.3904 7.00362 14.1104 7.91998C14.3827 8.19229 14.5606 8.49607 14.7313 8.78767L14.7313 8.78769C14.8069 8.91664 14.881 9.0432 14.9613 9.16362C15.0922 9.49089 15.2885 9.88362 15.4849 10.2109L15.5504 10.3418C17.3831 13.7454 19.0849 17.2145 20.6558 20.6182C20.7867 21.0109 20.9831 21.4036 21.1794 21.7963ZM39.2449 12.1745C39.2449 13.0254 38.5904 13.68 37.7394 13.68C36.8885 13.68 36.234 13.0254 36.234 12.1745C36.234 11.3236 36.8885 10.6691 37.7394 10.6691C38.5904 10.7345 39.2449 11.3891 39.2449 12.1745ZM33.0922 15.1854V15.5782C33.0922 15.5782 32.3722 14.6618 30.8667 14.6618C28.3794 14.6618 26.4158 16.56 26.4158 19.1782C26.4158 21.7963 28.3794 23.6945 30.8667 23.6945C32.4376 23.6945 33.0922 22.7782 33.0922 22.7782V23.1709C33.0922 23.3673 33.2231 23.4982 33.4194 23.4982H35.2522V14.8582H33.4194C33.2231 14.8582 33.0922 15.0545 33.0922 15.1854ZM31.2594 21.6C32.0449 21.6 32.7649 21.2073 33.0922 20.6836V17.5418C32.8303 17.0836 32.0449 16.6254 31.2594 16.6254C29.754 16.6254 28.6413 17.5418 28.6413 19.1127C28.6413 20.6836 29.754 21.6 31.2594 21.6ZM38.8522 23.4327V14.8582H36.6267V23.4327H38.8522ZM67.4558 15.5782C67.4558 15.5782 68.1758 14.6618 69.6813 14.6618C72.1685 14.6618 74.0667 16.56 74.0667 19.1782C74.0667 21.7963 72.1031 23.6945 69.6158 23.6945C68.1103 23.6945 67.3904 22.7782 67.3904 22.7782V23.1709C67.3904 23.3673 67.2594 23.4982 67.0631 23.4982H65.2303V10.8H67.4558V15.5782ZM69.2885 21.6C68.4376 21.6 67.7831 21.1418 67.4558 20.6836V17.6073C67.7831 17.1491 68.5685 16.6909 69.2885 16.6909C70.794 16.6909 71.9067 17.6073 71.9067 19.1782C71.9067 20.7491 70.794 21.6 69.2885 21.6ZM64.0522 23.4327V18.3273C64.0522 16.9527 63.7903 16.1018 63.0049 15.5127C62.3503 14.9236 61.5649 14.6618 60.5831 14.6618C59.7322 14.6618 58.8813 14.9236 58.2267 15.5782V15.1854C58.2267 14.9891 58.0958 14.8582 57.8994 14.8582H56.1322V23.4327H58.3576V17.4763C58.7503 16.9527 59.4703 16.6254 60.1249 16.6254C61.3685 16.6254 61.8267 17.1491 61.8267 18.5891V23.4327H64.0522ZM50.7649 14.6618C49.2594 14.6618 48.5394 15.5782 48.5394 15.5782V10.8H46.314V23.4982H48.1467C48.3431 23.4982 48.474 23.3673 48.474 23.1709V22.7782C48.474 22.7782 49.194 23.6945 50.6994 23.6945C53.1867 23.6945 55.1503 21.7963 55.1503 19.1782C55.2813 16.56 53.3176 14.6618 50.7649 14.6618ZM48.6049 20.6836C48.9322 21.1418 49.5867 21.6 50.4376 21.6C51.8776 21.6 53.0558 20.7491 53.0558 19.1782C53.0558 17.6073 51.9431 16.6909 50.4376 16.6909C49.7176 16.6909 48.9322 17.1491 48.6049 17.6073V20.6836ZM44.4158 14.6618C45.0703 14.6618 45.3976 14.7927 45.3976 14.7927V16.8218C45.3976 16.8218 43.5649 16.2327 42.3867 17.4763V23.4982H40.1613V14.8582H41.994C42.1903 14.8582 42.3213 14.9891 42.3213 15.1854V15.5782C42.8449 15.0545 43.7613 14.6618 44.4158 14.6618ZM11.0994 23.8254C9.8558 22.2545 9.07035 20.8145 8.74308 19.5709C8.61217 19.0473 8.61217 18.5891 8.67762 18.1963C8.74308 17.8036 8.87399 17.5418 9.07035 17.2145C9.52853 16.6254 10.2485 16.2327 11.0994 16.2327C11.9503 16.2327 12.7358 16.6254 13.1285 17.2145C13.3249 17.4763 13.4558 17.8036 13.5213 18.1963C13.5867 18.5891 13.5867 19.1127 13.4558 19.5709C13.1285 20.8145 12.3431 22.2545 11.0994 23.8254ZM18.1685 27.6218C19.2813 27.1636 20.1322 26.1163 20.2631 24.9382C20.394 24.3491 20.3285 23.76 20.0667 23.1709C20.0013 22.9745 19.8703 22.7127 19.7394 22.4509C19.6238 22.2582 19.5309 22.0429 19.434 21.8182C19.3663 21.6612 19.2966 21.4997 19.2158 21.3382C17.6449 17.9345 15.9431 14.4654 14.1758 11.0618L14.1103 10.9309C13.9794 10.6036 13.7831 10.2109 13.5867 9.88362C13.3903 9.55634 13.194 9.22907 12.9322 8.9018C12.474 8.37816 11.8194 8.05089 11.0994 8.05089C10.3794 8.05089 9.7249 8.37816 9.26671 8.9018C9.0049 9.16362 8.80853 9.49089 8.61217 9.88362C8.48126 10.2109 8.2849 10.6036 8.08853 10.9309L8.02308 11.0618C6.2558 14.4 4.55399 17.8691 2.98308 21.2727V21.3382C2.93292 21.4385 2.88276 21.5345 2.83369 21.6285C2.69067 21.9024 2.55691 22.1585 2.45944 22.4509C2.32853 22.7127 2.19762 22.9745 2.13217 23.1709C1.9358 23.8254 1.87035 24.3491 1.9358 24.9382C2.06671 26.1163 2.91762 27.1636 4.03035 27.6218C4.55399 27.8182 5.14308 27.8836 5.79762 27.8182C6.38671 27.7527 6.9758 27.5563 7.5649 27.2291C8.4158 26.7709 9.26671 26.0509 10.1831 25.0036C8.67762 23.1709 7.6958 21.4691 7.36853 19.9636C7.17217 19.2436 7.17217 18.5891 7.23762 18C7.30308 17.4109 7.49944 16.8873 7.82671 16.4291C8.54671 15.3818 9.79035 14.7927 11.0994 14.7927C12.474 14.7927 13.6522 15.3818 14.3722 16.4291C14.634 16.8873 14.8958 17.4109 14.9613 18C15.0267 18.5891 14.9613 19.2436 14.8303 19.9636C14.4376 21.4691 13.5213 23.1709 12.0158 25.0036C12.9976 26.0509 13.7831 26.7709 14.634 27.2291C15.2231 27.5563 15.8122 27.7527 16.4013 27.8182C16.9904 27.9491 17.6449 27.8182 18.1685 27.6218Z" fill="white"/>
</svg>
