<svg width="50" height="36" viewBox="0 0 50 36" fill="none" xmlns="http://www.w3.org/2000/svg">
<path fill-rule="evenodd" clip-rule="evenodd" d="M47.0669 15C47.0669 14.4667 47.4002 13.8667 48.2669 13.8667C49.0002 13.8667 49.4002 14.4 49.4669 15C49.4669 15.6 49.0002 16.1334 48.2669 16.1334C47.4002 16.1334 47.0669 15.5334 47.0669 15ZM49.1336 15C49.1336 14.4667 48.8002 14.1334 48.2669 14.1334C47.7336 14.1334 47.3336 14.4667 47.3336 15C47.3336 15.4667 47.7336 15.8667 48.2669 15.8667C48.8002 15.8667 49.1336 15.5334 49.1336 15ZM48.0002 15.1334H48.2002L48.4669 15.6H48.8002L48.4669 15.0667C48.6669 15.0667 48.8002 14.9334 48.8002 14.7334C48.8002 14.4667 48.6669 14.3334 48.4002 14.3334H47.6669V15.6H48.0002V15.1334ZM48.5336 14.7334C48.5336 14.6 48.4002 14.6 48.2669 14.6V14.5334H48.0002V14.8667H48.3336C48.4669 14.8667 48.5336 14.8667 48.5336 14.7334Z" fill="white"/>
<path d="M10.5337 16.4666H11.9337V22.7999H10.6004L10.5337 16.4666Z" fill="white"/>
<path d="M10.5337 13.9333H11.9337V15.9334H10.5337V13.9333Z" fill="white"/>
<path d="M42.1338 13.8667H43.5338V22.7334H42.2005L42.1338 13.8667Z" fill="white"/>
<path d="M44.4668 13.8667H45.8668V22.7334H44.5335L44.4668 13.8667Z" fill="white"/>
<path fill-rule="evenodd" clip-rule="evenodd" d="M0.0668945 16.4666H7.66689C8.93356 16.4666 9.33356 17.4666 9.26689 17.9999C9.26689 18.5999 9.00023 19.1332 8.66689 19.2666C9.26689 19.5332 9.73356 20.2666 9.66689 20.9332C9.60023 22.5999 7.93356 22.7332 7.26689 22.7332H0.0668945V16.4666ZM7.13356 21.7999C7.66689 21.7999 8.13356 21.3999 8.13356 20.8666C8.13356 20.3332 7.66689 19.8666 7.13356 19.8666H1.40023V21.7332L7.13356 21.7999ZM7.80023 18.1999C7.80023 18.6666 7.40023 18.9999 6.93356 18.9999L1.40023 18.9332V17.3999H6.93356C7.40023 17.3999 7.80023 17.7332 7.80023 18.1999Z" fill="white"/>
<path d="M34.8002 16.4666C34.2669 16.4666 33.1336 16.7332 33.0669 17.7999C33.0669 18.7332 33.6002 19.1999 33.8669 19.2666C33.4669 19.4666 33.0669 20.1999 33.0669 20.7999C33.0669 21.4666 33.3336 22.7332 35.4669 22.7332H41.3336V21.7999H35.6669C35.1336 21.7999 34.6669 21.3999 34.6669 20.8666C34.6669 20.3332 35.1336 19.8666 35.6669 19.8666H41.0669V18.9332H35.5336C35.0669 18.9332 34.6669 18.5999 34.6669 18.1332C34.6669 17.6666 35.0669 17.3332 35.5336 17.3332H41.3336V16.3999L34.8002 16.4666Z" fill="white"/>
<path d="M30.6002 18.3999H32.0002C32.0002 16.8666 31.2669 16.3999 29.3335 16.3999H25.5335C24.6669 16.3999 23.2002 16.7999 23.2002 18.0666C23.2002 19.3332 23.7335 19.8666 25.2669 19.8666H29.8002C30.3335 19.8666 30.8669 20.1999 30.8669 20.7999C30.8669 21.3999 30.5335 21.7999 29.6002 21.7999H26.0002C25.5335 21.7999 24.6002 21.7332 24.6002 20.7999H23.2002C23.2002 21.5999 23.3335 22.7999 25.4669 22.7999H29.9335C30.8002 22.7999 32.2669 22.3999 32.2669 20.7999C32.2669 19.1999 30.9335 18.9999 30.1335 18.9999H25.6002C24.8669 18.9999 24.6002 18.5332 24.6002 18.1999C24.6002 17.8666 24.8669 17.3999 25.6002 17.3999H29.5335C30.2002 17.3999 30.6002 17.6666 30.6002 18.3999Z" fill="white"/>
<path d="M20.8002 18.3999H22.2002C22.2002 16.8666 21.4668 16.3999 19.5335 16.3999H15.7335C14.8668 16.3999 13.4002 16.7999 13.4002 18.0666C13.4002 19.3332 13.9335 19.8666 15.4668 19.8666H20.0002C20.5335 19.8666 21.0668 20.1999 21.0668 20.7999C21.0668 21.3999 20.7335 21.7999 19.8002 21.7999H16.2002C15.7335 21.7999 14.8002 21.7332 14.8002 20.7999H13.3335C13.3335 21.5999 13.4668 22.7999 15.6002 22.7999H20.0668C20.9335 22.7999 22.4002 22.3999 22.4002 20.7999C22.4002 19.1999 21.0668 18.9999 20.2668 18.9999H15.7335C15.0002 18.9999 14.7335 18.5332 14.7335 18.1999C14.7335 17.8666 15.0002 17.3999 15.7335 17.3999H19.6668C20.4002 17.3999 20.8002 17.6666 20.8002 18.3999Z" fill="white"/>
<path fill-rule="evenodd" clip-rule="evenodd" d="M41.8002 34.0666C43.9335 34.0666 43.0668 32.1333 42.6668 31.4666C42.0668 30.5333 39.1335 25.3333 39.1335 25.3333H7.26684C7.26684 25.3333 4.33351 30.4666 3.73351 31.4666C3.33351 32.1333 2.53351 33.9999 4.66684 33.9999L41.8002 34.0666Z" fill="white"/>
<path fill-rule="evenodd" clip-rule="evenodd" d="M13.3105 13.9878H32.6439C32.6439 13.9878 27.7772 5.3211 26.6439 3.38776C25.5772 1.58776 24.9772 0.721098 22.9105 0.721098C20.8439 0.654431 20.3105 1.5211 19.1772 3.38776C18.1772 5.18776 13.3105 13.9878 13.3105 13.9878Z" fill="white"/>
</svg>
