<svg width="100" height="36" viewBox="0 0 100 36" fill="none" xmlns="http://www.w3.org/2000/svg">
<path fill-rule="evenodd" clip-rule="evenodd" d="M20.1236 8.14189C17.7553 6.63893 14.6376 6.99701 11.8569 8.77172C9.08486 6.99701 5.96515 6.63893 3.59978 8.14189C-0.141939 10.517 -0.596856 16.6338 2.58467 21.8049C4.92976 25.6172 8.59711 27.851 11.8617 27.8098C15.1263 27.851 18.7936 25.6172 21.1387 21.8049C24.3164 16.6338 23.8653 10.517 20.1236 8.14189ZM4.30486 20.713C3.64884 19.6566 3.15387 18.5056 2.83676 17.2989C2.55501 16.2515 2.44729 15.1636 2.51803 14.0801C2.66001 12.1691 3.42593 10.6808 4.67381 9.88913C5.92169 9.09743 7.57137 9.04936 9.32826 9.75767C9.59194 9.8646 9.85272 9.98821 10.1116 10.1246C9.13527 11.0288 8.28634 12.0654 7.58876 13.2051C5.65705 16.3444 5.06788 19.8379 5.74205 22.6231C5.20449 22.034 4.72326 21.3945 4.30486 20.713ZM19.4195 20.712C20.0751 19.6555 20.5701 18.5045 20.8876 17.298C21.1677 16.2499 21.2741 15.1618 21.2025 14.0782C21.0605 12.1671 20.2955 10.6798 19.0467 9.88717C17.7978 9.09448 16.1453 9.04739 14.3932 9.75571C13.4051 10.1666 12.4912 10.7414 11.6888 11.4568C9.82813 13.1103 8.49008 15.2855 7.84278 17.709C7.56146 18.7566 7.45374 19.8444 7.52405 20.9278C7.66603 22.8379 8.43195 24.3262 9.6808 25.1188C10.3244 25.5188 11.0619 25.7356 11.8163 25.7467H11.9119C12.6663 25.7354 13.4038 25.5186 14.0474 25.1188C15.2953 24.3262 16.0612 22.8379 16.2032 20.9278C16.2732 19.8456 16.1652 18.7591 15.8835 17.7129C15.8111 17.4186 15.7145 17.1243 15.6179 16.83L12.6315 18.7254C12.5469 18.7793 12.4446 18.7968 12.3473 18.7739C12.25 18.7511 12.1656 18.6899 12.1128 18.6037L11.4367 17.5059C11.3836 17.4199 11.3664 17.3158 11.3888 17.2168C11.4113 17.1178 11.4716 17.0319 11.5565 16.9781L16.1636 14.0546C16.2523 13.9967 16.3611 13.9796 16.4629 14.0077C16.5647 14.0357 16.65 14.1063 16.6977 14.2018C18.1755 17.0704 18.585 20.1293 17.9823 22.626C18.5195 22.0353 19.0007 21.3945 19.4195 20.712ZM44.6688 15.0151C42.2465 15.0151 40.2887 16.936 40.2887 19.3797C40.2887 21.8068 42.2465 23.6963 44.6688 23.6963C47.1076 23.6963 49.0654 21.8098 49.0654 19.3797C49.0654 16.9369 47.1105 15.0161 44.6688 15.0161V15.0151ZM42.7024 19.3631C42.7024 20.4971 43.5523 21.4144 44.6688 21.4144V21.4183C45.8018 21.4183 46.6517 20.5001 46.6517 19.366C46.6517 18.2319 45.8018 17.298 44.6688 17.298C43.5523 17.298 42.7024 18.229 42.7024 19.3631ZM54.5273 11.6629H50.0699C49.9726 11.661 49.8787 11.6995 49.81 11.7694C49.7413 11.8394 49.7037 11.9349 49.7058 12.0337V23.0714C49.6988 23.1736 49.7341 23.2741 49.8033 23.3486C49.8724 23.4231 49.9691 23.4649 50.0699 23.4638H54.5273C58.0942 23.4638 60.5726 21.0544 60.5726 17.5491C60.5726 14.0223 58.0942 11.6629 54.5273 11.6629ZM52.1938 21.1329H54.6326C56.6068 21.1329 57.9677 19.5661 57.9677 17.5442C57.9677 15.4879 56.6068 13.9879 54.6326 13.9879H52.1938V21.1329ZM69.4449 15.2525H67.7692C67.5771 15.2679 67.4273 15.4277 67.4215 15.6233V16.1286C67.0399 15.4879 66.1774 15.0161 65.1034 15.0161C63.0133 15.0161 61.0555 16.6838 61.0555 19.3474C61.0555 21.9962 62.9959 23.6944 65.087 23.6944C66.1649 23.6944 67.0448 23.2235 67.4263 22.5828V23.1048C67.4273 23.2995 67.5822 23.4573 67.774 23.4589H69.4498C69.5429 23.4611 69.6328 23.4245 69.6987 23.3576C69.7645 23.2907 69.8006 23.1993 69.7984 23.1048V15.6233C69.8013 15.5261 69.7654 15.4319 69.6988 15.3621C69.6322 15.2922 69.5406 15.2527 69.4449 15.2525ZM63.6034 19.365C63.6034 20.5668 64.437 21.4331 65.5467 21.4331V21.4321C66.6575 21.4321 67.49 20.5658 67.49 19.364C67.49 18.1623 66.6565 17.298 65.5467 17.298C64.437 17.298 63.6034 18.1632 63.6034 19.365ZM78.8514 11.6629H77.1756C77.0809 11.66 76.9889 11.6958 76.9205 11.7624C76.852 11.829 76.8127 11.9207 76.8115 12.017V16.0952C76.4252 15.4879 75.5501 15.0161 74.4558 15.0161C72.3811 15.0161 70.4571 16.6838 70.4571 19.3474C70.4571 21.9962 72.3975 23.6944 74.4886 23.6944C75.5665 23.6944 76.3798 23.2235 76.8279 22.5828V23.1048C76.8284 23.2997 76.9837 23.4578 77.1756 23.4589H78.8514C78.9446 23.4614 79.0347 23.4248 79.1006 23.3579C79.1665 23.2909 79.2025 23.1994 79.2001 23.1048V12.019C79.203 11.924 79.1673 11.8319 79.1013 11.7646C79.0353 11.6972 78.9449 11.6604 78.8514 11.6629ZM73.0215 19.364C73.0215 20.5786 73.8483 21.4537 74.9532 21.4537C76.0591 21.4537 76.8849 20.5786 76.8849 19.364C76.8849 18.1495 76.0552 17.2744 74.9532 17.2744C73.8512 17.2744 73.0215 18.1495 73.0215 19.364ZM88.2559 11.6629H86.583C86.4882 11.66 86.3962 11.6958 86.3276 11.7624C86.2589 11.8289 86.2195 11.9206 86.2179 12.017V16.0952C85.8364 15.4879 84.9565 15.0161 83.8622 15.0161C81.7876 15.0161 79.8636 16.6838 79.8636 19.3474C79.8636 21.9962 81.805 23.6944 83.8951 23.6944C84.9739 23.6944 85.7862 23.2235 86.2344 22.5828V23.1048C86.2354 23.2999 86.3909 23.4578 86.583 23.4589H88.2559C88.349 23.4614 88.439 23.4248 88.5048 23.3578C88.5705 23.2908 88.6063 23.1993 88.6036 23.1048V12.019C88.6068 11.9241 88.5713 11.832 88.5055 11.7646C88.4397 11.6972 88.3493 11.6604 88.2559 11.6629ZM82.426 19.364C82.426 20.5786 83.2518 21.4537 84.3577 21.4537H84.3606C85.4655 21.4537 86.2894 20.5786 86.2894 19.364C86.2894 18.1495 85.4597 17.2744 84.3577 17.2744C83.2557 17.2744 82.426 18.1495 82.426 19.364ZM97.4315 15.8264L94.9309 24.5371C94.448 26.0871 93.371 27.0142 91.6953 27.0142C90.9332 27.0142 90.2398 26.8563 89.696 26.5404C89.3792 26.3569 89.1165 26.1892 89.1165 25.9203C89.1165 25.7536 89.1696 25.6672 89.2662 25.5113L89.7626 24.7558C89.9027 24.5449 90.006 24.4763 90.1567 24.4763C90.2761 24.4792 90.3916 24.5201 90.487 24.593C90.799 24.798 91.0887 24.9746 91.5301 24.9746C92.0459 24.9746 92.44 24.8069 92.6525 24.1829L92.8669 23.4599H91.8547C91.6408 23.4669 91.4524 23.318 91.4065 23.1057L89.1686 15.8264C89.0856 15.5399 89.1619 15.2535 89.5762 15.2535H91.3389C91.5543 15.2535 91.705 15.328 91.7996 15.641L93.4522 21.5027L94.9975 15.641C95.0468 15.4389 95.1801 15.2535 95.4457 15.2535H97.1176C97.4469 15.2525 97.5464 15.4879 97.4315 15.8264ZM39.657 23.0704V18.4173C39.6577 18.3166 39.6175 18.2201 39.5458 18.1505C39.4742 18.0809 39.3774 18.0443 39.2784 18.0494H35.0045C34.9036 18.0478 34.8064 18.0878 34.7351 18.1603C34.6637 18.2328 34.6243 18.3315 34.6259 18.434V19.6986C34.6243 19.8011 34.6637 19.8998 34.7351 19.9723C34.8064 20.0447 34.9036 20.0848 35.0045 20.0831H36.463C36.0061 20.7297 35.0258 21.3183 33.7962 21.3183C31.4589 21.3183 30.2033 19.6299 30.2033 17.5766C30.2033 15.4585 31.6781 13.8251 33.7373 13.8251C35.3252 13.8251 36.3567 14.5854 36.9362 15.7048C36.9752 15.7988 37.0429 15.8775 37.1294 15.9294C37.228 15.9673 37.3372 15.9655 37.4346 15.9245L39.0495 15.2927C39.2707 15.2152 39.3393 15.1348 39.3393 15.0288C39.3372 14.9642 39.3231 14.9007 39.2977 14.8414C38.3918 12.5998 36.3519 11.4853 33.8001 11.4853C30.3433 11.4853 27.607 14.0125 27.607 17.6786C27.607 21.2064 30.1414 23.6846 33.3848 23.6846C35.1117 23.6846 36.6387 22.9753 37.5167 21.849V23.0704C37.5148 23.173 37.5541 23.2719 37.6255 23.3444C37.697 23.417 37.7943 23.4569 37.8953 23.455H39.2784C39.3793 23.4566 39.4765 23.4166 39.5479 23.3441C39.6192 23.2717 39.6586 23.1729 39.657 23.0704ZM97.4769 13.5298V13.417C97.4768 13.409 97.4795 13.4014 97.4846 13.3954C97.4902 13.3904 97.4974 13.3876 97.5049 13.3875H98.2109C98.2185 13.3873 98.2258 13.3901 98.2312 13.3954C98.2363 13.4014 98.2391 13.409 98.239 13.417V13.5298C98.2389 13.5374 98.2362 13.5447 98.2312 13.5504C98.2258 13.5557 98.2185 13.5585 98.2109 13.5582H97.9531V14.2656C97.9526 14.2816 97.9399 14.2945 97.9241 14.295H97.7908C97.7834 14.295 97.7764 14.2917 97.7715 14.2862C97.7659 14.2808 97.7628 14.2733 97.7628 14.2656V13.5582H97.5049C97.4973 13.5588 97.4898 13.556 97.4845 13.5505C97.4791 13.5451 97.4763 13.5375 97.4769 13.5298ZM98.9044 13.8673L98.7113 13.413C98.7096 13.4056 98.7059 13.3988 98.7006 13.3934C98.6929 13.3893 98.6842 13.3873 98.6755 13.3875H98.4582C98.4508 13.387 98.4435 13.3896 98.4381 13.3949C98.4328 13.4001 98.4299 13.4074 98.4302 13.415V14.2665C98.4298 14.2739 98.4323 14.2811 98.4372 14.2864C98.4422 14.2918 98.449 14.2949 98.4563 14.295H98.5847C98.5921 14.2952 98.5993 14.2922 98.6044 14.2868C98.6095 14.2814 98.6122 14.274 98.6118 14.2665V13.624L98.8185 14.0909C98.8211 14.0999 98.8265 14.1078 98.8339 14.1135C98.8416 14.1178 98.8503 14.1199 98.859 14.1194H98.9614C98.9705 14.12 98.9795 14.118 98.9875 14.1135C98.9946 14.1076 98.9999 14.0998 99.0029 14.0909L99.2106 13.624V14.2665C99.21 14.2742 99.2128 14.2818 99.2183 14.2871C99.2238 14.2924 99.2311 14.2953 99.2386 14.295H99.3642C99.3716 14.2953 99.3788 14.2924 99.384 14.2869C99.3891 14.2815 99.3918 14.2741 99.3912 14.2665V13.415C99.3915 13.4074 99.3886 13.4001 99.3833 13.3949C99.3779 13.3896 99.3706 13.387 99.3632 13.3875H99.1391C99.1301 13.3872 99.1211 13.3892 99.1131 13.3934C99.106 13.3981 99.1006 13.405 99.0976 13.413L98.9044 13.8673Z" fill="white"/>
</svg>
