<svg width="96" height="36" viewBox="0 0 96 36" fill="none" xmlns="http://www.w3.org/2000/svg">
<path fill-rule="evenodd" clip-rule="evenodd" d="M95.4984 15.7091V17.3455V17.411H93.3384V21.4691C93.3384 21.9928 93.4038 22.3855 93.6002 22.5819C93.7966 22.8437 94.1238 22.9091 94.5166 22.9091C94.582 22.9091 94.7784 22.9091 94.9093 22.8437C95.1057 22.7782 95.2366 22.7128 95.3675 22.6473L95.4329 22.5819V24.2182C95.302 24.2837 95.1057 24.3491 94.7784 24.4146C94.6475 24.4146 94.5002 24.431 94.3529 24.4473C94.2057 24.4637 94.0584 24.48 93.9275 24.48C92.1602 24.48 91.3093 23.5637 91.3093 21.731V17.3455H88.2329V24.2837H86.1384V17.3455H84.6984V15.7091H86.1384V14.531C86.1384 13.9419 86.2693 13.4182 86.5311 12.96C86.7929 12.4364 87.1857 12.1091 87.6438 11.8473C88.102 11.5855 88.6911 11.4546 89.2802 11.4546C89.8038 11.4546 90.1966 11.52 90.4584 11.5855H90.5238V13.3528L90.4584 13.2873C90.1311 13.1564 89.8038 13.091 89.542 13.091C89.0838 13.091 88.7566 13.2219 88.5602 13.4837C88.3638 13.7455 88.2329 14.0728 88.2329 14.5964V15.7091H91.3093V13.7455H91.3748L93.3384 13.1564H93.4038V15.7091H95.4984ZM41.8911 12.4364C42.0875 12.24 42.4148 12.1091 42.742 12.1091C43.1348 12.1091 43.3966 12.24 43.6584 12.4364C43.8548 12.6982 43.9857 12.96 43.9857 13.2873C43.9857 13.6146 43.8548 13.9419 43.5929 14.1382C43.3966 14.3346 43.0693 14.4655 42.742 14.4655C42.4148 14.4655 42.1529 14.3346 41.8911 14.1382C41.6293 13.8764 41.4984 13.6146 41.4984 13.2873C41.4984 12.96 41.6293 12.6328 41.8911 12.4364ZM33.7093 19.8328L33.1202 21.4037H33.0548C32.9893 21.0764 32.7929 20.4873 32.5311 19.8328L29.4548 12.371H26.4438V24.2837H28.4075V16.9528V15.3164C28.4075 15.132 28.3867 14.9683 28.3686 14.8255C28.3545 14.7148 28.342 14.6167 28.342 14.531H28.4075C28.4531 14.8504 28.5306 15.1062 28.5955 15.3206C28.6237 15.4137 28.6495 15.499 28.6693 15.5782L32.3348 24.2837H33.7093L37.3748 15.5128C37.399 15.4402 37.4232 15.3407 37.4507 15.2276L37.4507 15.2276L37.4507 15.2275L37.4507 15.2275L37.4507 15.2275L37.4507 15.2275C37.4976 15.0348 37.5541 14.8026 37.6366 14.5964H37.702C37.6366 15.4473 37.6366 16.2328 37.6366 16.7564V24.3491H39.7311V12.371H36.8511L33.7093 19.8328ZM41.6948 15.7091H43.7238V24.2837H41.6948V15.7091ZM51.0548 15.6437C50.662 15.5782 50.2693 15.5128 49.8766 15.5128C48.9602 15.5128 48.1093 15.7091 47.3893 16.1019C46.6693 16.4946 46.0802 17.0837 45.7529 17.7382C45.3602 18.4582 45.1638 19.2437 45.1638 20.2255C45.1638 21.0764 45.3602 21.7964 45.6875 22.451C46.0802 23.1055 46.5384 23.6291 47.2584 23.9564C47.9129 24.2837 48.6984 24.48 49.5493 24.48C50.5311 24.48 51.382 24.2837 52.0366 23.891V22.0582L51.9711 22.1237C51.6438 22.32 51.3166 22.5164 50.9893 22.6473C50.5966 22.7782 50.2693 22.8437 50.0075 22.8437C49.1566 22.8437 48.5675 22.5819 48.1093 22.1237C47.6511 21.6 47.3893 20.9455 47.3893 20.0946C47.3893 19.2437 47.6511 18.5237 48.1093 18C48.5675 17.4764 49.222 17.2146 50.0075 17.2146C50.662 17.2146 51.382 17.411 51.9711 17.8691L52.0366 17.9346V15.971C51.7748 15.84 51.4475 15.7091 51.0548 15.6437ZM56.4875 16.0364C56.8802 15.7091 57.3384 15.5782 57.862 15.5782C58.1893 15.5782 58.4511 15.6437 58.5166 15.7091H58.582V17.6728L58.5166 17.6073C58.4511 17.5419 58.2548 17.4764 58.0584 17.411C57.9602 17.411 57.862 17.3946 57.7638 17.3782C57.6657 17.3619 57.5675 17.3455 57.4693 17.3455C56.9457 17.3455 56.4875 17.6073 56.1602 18.0655C55.7675 18.5237 55.6366 19.1782 55.6366 19.8982V24.2837H53.6729V15.7091H55.702V17.2146C55.8984 16.691 56.1602 16.2982 56.4875 16.0364ZM63.4257 15.5128C61.9857 15.5128 60.8075 15.9055 60.022 16.7564C59.1711 17.6073 58.7784 18.72 58.7784 20.0946C58.7784 21.4037 59.1711 22.5164 59.9566 23.3019C60.742 24.0873 61.8548 24.48 63.1638 24.48C64.6038 24.48 65.7166 24.0873 66.502 23.2364C67.3529 22.3855 67.7457 21.2728 67.7457 19.8982C67.7457 18.5237 67.3529 17.4764 66.5675 16.691C65.9129 15.9055 64.8002 15.5128 63.4257 15.5128ZM63.3602 22.8437C64.0802 22.8437 64.6693 22.5819 65.062 22.1237C65.5202 21.6 65.6511 20.88 65.7166 20.0946C65.7166 19.1782 65.4548 18.4582 65.062 18C64.6693 17.5419 64.0802 17.28 63.3602 17.28C62.5748 17.28 62.0511 17.4764 61.5929 18C61.1348 18.4582 60.9384 19.1782 60.9384 20.0946C60.9384 20.9455 61.1348 21.6655 61.5929 22.1237C61.9857 22.5819 62.6402 22.8437 63.3602 22.8437ZM72.3929 19.2437C71.7384 18.9819 71.3457 18.7855 71.1493 18.5891C71.0184 18.4582 70.8875 18.1964 70.8875 17.9346C70.8875 17.6728 70.9529 17.4764 71.2148 17.3455C71.4766 17.2146 71.7384 17.0837 72.1311 17.0837C72.4584 17.0837 72.8511 17.1491 73.1784 17.2146C73.4426 17.2674 73.7069 17.4056 73.9367 17.5258L73.9368 17.5259C73.9915 17.5545 74.0444 17.5821 74.0948 17.6073L74.1602 17.6728V15.7746H74.0948C73.9973 15.7502 73.8998 15.7168 73.7956 15.681C73.6199 15.6207 73.4249 15.5539 73.1784 15.5128C72.7857 15.4473 72.4584 15.4473 72.1966 15.4473C71.2148 15.4473 70.4293 15.7091 69.7748 16.1673C69.1202 16.6255 68.8584 17.28 68.8584 18.0655C68.8584 18.4582 68.9239 18.851 69.0548 19.1128C69.1857 19.3746 69.382 19.7019 69.7093 19.8982C69.9711 20.0946 70.4293 20.3564 70.9529 20.6182C71.1057 20.6837 71.2511 20.7419 71.3845 20.7952C71.6511 20.9019 71.8693 20.9891 72.0002 21.0764C72.1966 21.2073 72.3929 21.3382 72.4584 21.4691C72.5238 21.6 72.5893 21.731 72.5893 21.9273C72.5893 22.5164 72.1311 22.7782 71.2148 22.7782C70.8875 22.7782 70.4948 22.7128 70.102 22.5819C69.6438 22.451 69.2511 22.2546 68.9239 21.9928L68.8584 21.9273V23.891H68.9239C69.2511 24.0219 69.5784 24.1528 70.0366 24.2182L70.1218 24.2305L70.2329 24.2467C70.608 24.3014 70.9352 24.3491 71.2148 24.3491C72.262 24.3491 73.1129 24.0873 73.7675 23.6291C74.422 23.1055 74.7493 22.5164 74.7493 21.6655C74.7493 21.0764 74.6184 20.5528 74.2257 20.2255C74.1231 20.1669 74.014 20.1017 73.8975 20.0322L73.8974 20.0321C73.4938 19.7911 73.0025 19.4977 72.3929 19.2437ZM76.7784 16.7564C77.5639 15.9055 78.742 15.5128 80.182 15.5128C81.5566 15.5128 82.6038 15.9055 83.3238 16.691C84.1093 17.4764 84.502 18.5237 84.502 19.8982C84.502 21.2728 84.1093 22.3855 83.2584 23.2364C82.4729 24.0873 81.3602 24.48 79.9202 24.48C78.6111 24.48 77.4984 24.0873 76.7129 23.3019C75.9275 22.5164 75.5348 21.4037 75.5348 20.0946C75.5348 18.72 75.9929 17.6073 76.7784 16.7564ZM81.8184 22.1237C81.4257 22.5819 80.8366 22.8437 80.1166 22.8437C79.3311 22.8437 78.742 22.5819 78.3493 22.1237C77.8911 21.6655 77.6948 20.9455 77.6948 20.0946C77.6948 19.1782 77.8911 18.4582 78.3493 18C78.8075 17.4764 79.3311 17.28 80.1166 17.28C80.8366 17.28 81.4257 17.5419 81.8184 18C82.2111 18.4582 82.4729 19.1782 82.4729 20.0946C82.4075 20.88 82.2111 21.6 81.8184 22.1237Z" fill="white"/>
<path d="M0 8.37817H9.68727V17.8036H0V8.37817Z" fill="white"/>
<path d="M10.7344 8.37817H20.4216V17.8036H10.7344V8.37817Z" fill="white"/>
<path d="M0 18.7854H9.68727V28.2763H0V18.7854Z" fill="white"/>
<path d="M10.7344 18.7854H20.4216V28.2763H10.7344V18.7854Z" fill="white"/>
</svg>
